<svg xmlns="http://www.w3.org/2000/svg" x="0px" y="0px"
width="128" height="128"
viewBox="0 0 172 172"
style=" fill:#undefined;"><defs><linearGradient x1="86" y1="103.46875" x2="86" y2="122.28663" gradientUnits="userSpaceOnUse" id="color-1_43663_gr1"><stop offset="0" stop-color="#70dfff"></stop><stop offset="1" stop-color="#70afff"></stop></linearGradient><linearGradient x1="86" y1="14.33244" x2="86" y2="157.80463" gradientUnits="userSpaceOnUse" id="color-2_43663_gr2"><stop offset="0" stop-color="#00c6ff"></stop><stop offset="1" stop-color="#0072ff"></stop></linearGradient><linearGradient x1="86" y1="14.33244" x2="86" y2="157.80463" gradientUnits="userSpaceOnUse" id="color-3_43663_gr3"><stop offset="0" stop-color="#00c6ff"></stop><stop offset="1" stop-color="#0072ff"></stop></linearGradient><linearGradient x1="70.97419" y1="14.33244" x2="70.97419" y2="157.80463" gradientUnits="userSpaceOnUse" id="color-4_43663_gr4"><stop offset="0" stop-color="#00c6ff"></stop><stop offset="1" stop-color="#0072ff"></stop></linearGradient><linearGradient x1="86" y1="14.33244" x2="86" y2="157.80463" gradientUnits="userSpaceOnUse" id="color-5_43663_gr5"><stop offset="0" stop-color="#00c6ff"></stop><stop offset="1" stop-color="#0072ff"></stop></linearGradient></defs><g transform="translate(-17.2,-17.2) scale(1.2,1.2)"><g fill="none" fill-rule="nonzero" stroke="none" stroke-width="1" stroke-linecap="butt" stroke-linejoin="miter" stroke-miterlimit="10" stroke-dasharray="" stroke-dashoffset="0" font-family="none" font-weight="none" font-size="none" text-anchor="none" style="mix-blend-mode: normal"><path d="M0,172v-172h172v172z" fill="none"></path><path d="" fill="none"></path><path d="" fill="none"></path><g><path d="M72.85006,104.8125c-1.65281,0 -2.99388,1.48619 -2.67675,3.10944c1.45125,7.4175 7.98456,13.01556 15.82669,13.01556c7.84212,0 14.37544,-5.59806 15.824,-13.01556c0.31981,-1.62325 -1.02125,-3.10944 -2.67406,-3.10944z" fill="url(#color-1_43663_gr1)"></path><path d="M86,32.25c-29.63775,0 -53.75,24.11225 -53.75,53.75c0,29.63775 24.11225,53.75 53.75,53.75c29.63775,0 53.75,-24.11225 53.75,-53.75c0,-29.63775 -24.11225,-53.75 -53.75,-53.75zM86,134.375c-26.67344,0 -48.375,-21.70156 -48.375,-48.375c0,-26.67344 21.70156,-48.375 48.375,-48.375c26.67344,0 48.375,21.70156 48.375,48.375c0,26.67344 -21.70156,48.375 -48.375,48.375z" fill="url(#color-2_43663_gr2)"></path><path d="M96.75,72.5625c-2.96431,0 -5.375,2.6875 -5.375,5.375h-10.75c0,-2.6875 -2.41069,-5.375 -5.375,-5.375h-26.875c-2.96431,0 -5.375,2.41069 -5.375,5.375v5.375c0,8.89294 7.23206,16.125 16.125,16.125h5.375c8.89294,0 16.125,-7.23206 16.125,-16.125h10.75c0,8.89294 7.23206,16.125 16.125,16.125h5.375c8.89294,0 16.125,-7.23206 16.125,-16.125v-5.375c0,-2.96431 -2.41069,-5.375 -5.375,-5.375zM75.25,83.3125c0,5.92863 -4.82138,10.75 -10.75,10.75h-5.375c-5.92863,0 -10.75,-4.82137 -10.75,-10.75v-5.375h4.26237l-0.78744,0.78744c-1.05081,1.05081 -1.05081,2.74931 0,3.80013c0.52406,0.52406 1.21206,0.78744 1.90006,0.78744c0.688,0 1.376,-0.26337 1.90006,-0.78744l4.58756,-4.58756h5.83725l-6.16244,6.16244c-1.05081,1.05081 -1.05081,2.74931 0,3.80013c0.52406,0.52406 1.21206,0.78744 1.90006,0.78744c0.688,0 1.376,-0.26338 1.90006,-0.78744l9.96256,-9.96256h1.57487zM123.625,83.3125c0,5.92863 -4.82137,10.75 -10.75,10.75h-5.375c-5.92863,0 -10.75,-4.82137 -10.75,-10.75v-5.375h4.26237l-0.78744,0.78744c-1.05081,1.05081 -1.05081,2.74931 0,3.80013c0.52406,0.52406 1.21206,0.78744 1.90006,0.78744c0.688,0 1.376,-0.26337 1.90006,-0.78744l4.58756,-4.58756h5.83725l-6.16244,6.16244c-1.05081,1.05081 -1.05081,2.74931 0,3.80013c0.52406,0.52406 1.21206,0.78744 1.90006,0.78744c0.688,0 1.376,-0.26338 1.90006,-0.78744l9.96256,-9.96256h1.57487z" fill="url(#color-3_43663_gr3)"></path><path d="M55.95106,61.8125c0.73638,0 1.47275,-0.301 2.00219,-0.89494c7.138,-7.97113 17.35856,-12.54256 28.04406,-12.54256c1.48619,0 2.6875,-1.20131 2.6875,-2.6875c0,-1.48619 -1.20131,-2.6875 -2.6875,-2.6875c-12.212,0 -23.89456,5.22181 -32.04844,14.33244c-0.989,1.10456 -0.89494,2.80575 0.20962,3.79475c0.51331,0.45956 1.15294,0.68531 1.79256,0.68531z" fill="url(#color-4_43663_gr4)"></path><path d="M155.875,86c0,-5.1385 -3.24919,-10.12112 -8.98969,-13.88631c0.61544,-3.4615 0.24994,-6.97675 -1.08306,-10.277c-1.42169,-3.526 -3.88344,-6.51988 -7.03587,-8.60806c1.52112,-6.84775 0.31712,-12.96181 -3.35669,-16.63563c-3.67381,-3.67381 -9.78519,-4.87781 -16.63563,-3.35669c-2.08819,-3.15244 -5.08475,-5.61419 -8.61075,-7.03588c-3.30025,-1.33569 -6.81012,-1.70387 -10.27431,-1.08306c-3.76788,-5.74319 -8.7505,-8.99237 -13.889,-8.99237c-5.1385,0 -10.12112,3.24919 -13.88631,8.98969c-3.46419,-0.61813 -6.97944,-0.25262 -10.277,1.08306c-3.52063,1.42169 -6.53062,3.88613 -8.6215,7.03319c-6.84238,-1.52381 -12.95375,-0.31175 -16.62488,3.35938c-3.67381,3.67381 -4.87781,9.79056 -3.35669,16.63563c-3.15244,2.08819 -5.61419,5.08475 -7.03587,8.61075c-1.333,3.30025 -1.70119,6.81281 -1.08306,10.27431c-5.7405,3.76787 -8.98969,8.7505 -8.98969,13.889c0,5.1385 3.24919,10.12113 8.98969,13.88631c-0.61544,3.4615 -0.24994,6.97675 1.08306,10.277c1.42169,3.526 3.88344,6.51987 7.03587,8.60806c-1.52113,6.84775 -0.31712,12.96181 3.35669,16.63563c3.6765,3.6765 9.80131,4.88319 16.63563,3.354c2.09087,3.15513 5.08744,5.61687 8.61075,7.03856c3.30025,1.33569 6.81012,1.70387 10.27431,1.08306c3.76787,5.74319 8.7505,8.99238 13.889,8.99238c5.1385,0 10.12113,-3.24919 13.88631,-8.98969c3.46419,0.61812 6.97944,0.25262 10.277,-1.08306c3.52331,-1.42169 6.51719,-3.88344 8.60806,-7.03856c6.84238,1.52919 12.96181,0.3225 16.63563,-3.354c3.67381,-3.67381 4.87781,-9.79056 3.35669,-16.63562c3.15244,-2.08819 5.61419,-5.08475 7.03587,-8.61075c1.333,-3.30025 1.70119,-6.81281 1.08306,-10.27431c5.74319,-3.76788 8.99237,-8.7505 8.99237,-13.889zM142.502,96.26625c-1.08306,0.61544 -1.60444,1.89469 -1.25506,3.09063c0.85731,2.93475 0.7095,5.97431 -0.42731,8.79081c-1.21206,2.99925 -3.47762,5.461 -6.38013,6.93375c-1.15831,0.58588 -1.73075,1.91619 -1.36256,3.1605c1.70388,5.74856 1.15294,10.74194 -1.47006,13.36763c-2.62569,2.62569 -7.61637,3.17662 -13.36762,1.46737c-1.23625,-0.36281 -2.57462,0.20425 -3.1605,1.36256c-1.47275,2.9025 -3.9345,5.17075 -6.93106,6.38281c-2.81919,1.13681 -5.85875,1.28731 -8.79081,0.42731c-1.20131,-0.35744 -2.47787,0.16931 -3.09063,1.25506c-2.838,5.00681 -6.67575,7.99531 -10.26625,7.99531c-3.5905,0 -7.42825,-2.9885 -10.26625,-7.998c-0.48913,-0.85731 -1.39213,-1.36256 -2.33813,-1.36256c-0.24994,0 -0.50525,0.03494 -0.7525,0.1075c-2.93744,0.85731 -5.977,0.7095 -8.79081,-0.42731c-2.99925,-1.21206 -5.461,-3.48031 -6.93375,-6.38281c-0.58856,-1.15831 -1.92694,-1.72269 -3.1605,-1.36256c-5.75125,1.70925 -10.74194,1.15831 -13.36763,-1.46738c-2.623,-2.62569 -3.17394,-7.61906 -1.47006,-13.36762c0.36819,-1.24431 -0.20425,-2.57462 -1.36256,-3.1605c-2.9025,-1.47275 -5.16806,-3.9345 -6.38013,-6.93106c-1.13681,-2.81919 -1.28731,-5.85875 -0.42731,-8.79081c0.34937,-1.19594 -0.16931,-2.47519 -1.25506,-3.09063c-5.00681,-2.838 -7.99531,-6.67575 -7.99531,-10.26625c0,-3.5905 2.9885,-7.42825 7.998,-10.26625c1.08306,-0.61544 1.60444,-1.89469 1.25506,-3.09063c-0.85731,-2.93475 -0.7095,-5.97431 0.42731,-8.79081c1.21206,-2.99925 3.47763,-5.461 6.38013,-6.93375c1.15831,-0.58588 1.73075,-1.91619 1.36256,-3.1605c-1.70387,-5.74856 -1.15294,-10.74194 1.47006,-13.36762c2.623,-2.623 7.62175,-3.17394 13.36762,-1.47006c1.25775,0.3655 2.58537,-0.21231 3.16856,-1.376l0.1505,-0.31981c1.4835,-2.73319 3.88881,-4.87781 6.77519,-6.04687c2.81919,-1.13681 5.85875,-1.28731 8.79081,-0.42731c1.19056,0.35206 2.47519,-0.16931 3.09063,-1.25506c2.83531,-5.00681 6.67306,-7.99531 10.26356,-7.99531c3.5905,0 7.42825,2.9885 10.26625,7.998c0.61544,1.08306 1.892,1.60713 3.09063,1.25506c2.93206,-0.86269 5.97431,-0.7095 8.79081,0.42731c2.99925,1.21206 5.461,3.47763 6.93375,6.38013c0.58588,1.15562 1.90006,1.72537 3.1605,1.36256c5.74319,-1.70119 10.74463,-1.15563 13.36763,1.47006c2.623,2.62569 3.17394,7.61906 1.47006,13.36762c-0.36819,1.24431 0.20425,2.57462 1.36256,3.1605c2.9025,1.47275 5.16806,3.9345 6.38013,6.93106c1.13681,2.81919 1.28731,5.85875 0.42731,8.79081c-0.34937,1.19594 0.16931,2.47519 1.25506,3.09063c5.00681,2.838 7.99531,6.67575 7.99531,10.26625c0,3.5905 -2.9885,7.42825 -7.998,10.26625z" fill="url(#color-5_43663_gr5)"></path></g><path d="" fill="none"></path></g></g></svg>